<svg width="60" height="60" viewBox="0 0 60 60" fill="none" xmlns="http://www.w3.org/2000/svg">
<path d="M34.648 27.7559V24.2241C34.648 21.8066 34.648 19 30 19C25.0244 19 25.3531 21.8066 25.3531 24.2241V27.7559M39.4269 25.4096L40.9922 39.5367C41.0789 40.3195 40.4345 41 39.6054 41H20.3957C20.2002 41.0002 20.0068 40.9613 19.8281 40.8859C19.6494 40.8104 19.4894 40.7001 19.3585 40.5621C19.2275 40.4241 19.1287 40.2615 19.0682 40.0848C19.0078 39.9082 18.9872 39.7214 19.0077 39.5367L20.5742 25.4096C20.6103 25.0841 20.772 24.7829 21.0281 24.564C21.2842 24.3451 21.6165 24.224 21.961 24.2241H38.0401C38.7539 24.2241 39.3525 24.7362 39.4269 25.4096ZM25.8178 27.7559C25.8178 27.8729 25.7688 27.9852 25.6817 28.068C25.5945 28.1508 25.4763 28.1973 25.3531 28.1973C25.2298 28.1973 25.1116 28.1508 25.0244 28.068C24.9373 27.9852 24.8883 27.8729 24.8883 27.7559C24.8883 27.6388 24.9373 27.5265 25.0244 27.4437C25.1116 27.3609 25.2298 27.3144 25.3531 27.3144C25.4763 27.3144 25.5945 27.3609 25.6817 27.4437C25.7688 27.5265 25.8178 27.6388 25.8178 27.7559ZM35.1128 27.7559C35.1128 27.8729 35.0638 27.9852 34.9767 28.068C34.8895 28.1508 34.7713 28.1973 34.648 28.1973C34.5248 28.1973 34.4066 28.1508 34.3194 28.068C34.2322 27.9852 34.1833 27.8729 34.1833 27.7559C34.1833 27.6388 34.2322 27.5265 34.3194 27.4437C34.4066 27.3609 34.5248 27.3144 34.648 27.3144C34.7713 27.3144 34.8895 27.3609 34.9767 27.4437C35.0638 27.5265 35.1128 27.6388 35.1128 27.7559Z" stroke="#35383A" stroke-width="1.5" stroke-linecap="round" stroke-linejoin="round"/>
</svg>
