<svg width="14" height="14" viewBox="0 0 14 14" fill="none" xmlns="http://www.w3.org/2000/svg">
<path d="M7.00066 0.333374C10.6827 0.333374 13.6673 3.31804 13.6673 7.00004C13.6673 10.682 10.6827 13.6667 7.00066 13.6667C5.8225 13.6687 4.66505 13.3569 3.64733 12.7634L0.336661 13.6667L1.23799 10.3547C0.643967 9.33666 0.33193 8.17872 0.333995 7.00004C0.333995 3.31804 3.31866 0.333374 7.00066 0.333374ZM4.72866 3.86671L4.59533 3.87204C4.50912 3.87798 4.42489 3.90062 4.34733 3.93871C4.27505 3.97971 4.20904 4.03091 4.15133 4.09071C4.07133 4.16604 4.02599 4.23137 3.97733 4.29471C3.73074 4.61531 3.59798 5.00892 3.59999 5.41337C3.60133 5.74004 3.68666 6.05804 3.81999 6.35537C4.09266 6.95671 4.54133 7.59337 5.13333 8.18337C5.27599 8.32537 5.416 8.46804 5.56666 8.60071C6.30228 9.24831 7.17885 9.71536 8.12666 9.96471L8.50533 10.0227C8.62866 10.0294 8.752 10.02 8.876 10.014C9.07012 10.0038 9.25966 9.95124 9.43133 9.86004C9.51856 9.81494 9.60375 9.766 9.68666 9.71337C9.68666 9.71337 9.71488 9.69426 9.77 9.65337C9.86 9.58671 9.91533 9.53937 9.99 9.46137C10.046 9.4036 10.0927 9.33649 10.13 9.26004C10.182 9.15137 10.234 8.94404 10.2553 8.77137C10.2713 8.63937 10.2667 8.56737 10.2647 8.52271C10.262 8.45137 10.2027 8.37737 10.138 8.34604L9.75 8.17204C9.75 8.17204 9.17 7.91937 8.81533 7.75804C8.7782 7.74188 8.73844 7.73262 8.698 7.73071C8.65238 7.72594 8.60627 7.73103 8.56279 7.74563C8.51931 7.76024 8.47948 7.78403 8.446 7.81537C8.44266 7.81404 8.39799 7.85204 7.91599 8.43604C7.88833 8.47321 7.85022 8.50131 7.80653 8.51674C7.76284 8.53218 7.71554 8.53426 7.67066 8.52271C7.62721 8.51113 7.58466 8.49642 7.54333 8.47871C7.46066 8.44404 7.43199 8.43071 7.37533 8.40671C6.99258 8.23998 6.63829 8.01436 6.32533 7.73804C6.24133 7.66471 6.16333 7.58471 6.08333 7.50737C5.82107 7.25618 5.5925 6.97203 5.40333 6.66204L5.36399 6.59871C5.33617 6.55591 5.31335 6.51005 5.29599 6.46204C5.27066 6.36404 5.33666 6.28537 5.33666 6.28537C5.33666 6.28537 5.49866 6.10804 5.57399 6.01204C5.64733 5.91871 5.70933 5.82804 5.74933 5.76337C5.82799 5.63671 5.85266 5.50671 5.81133 5.40604C5.62466 4.95004 5.43177 4.49649 5.23266 4.04537C5.19333 3.95604 5.07666 3.89204 4.97066 3.87937C4.93466 3.87493 4.89866 3.87137 4.86266 3.86871C4.77315 3.86357 4.68339 3.86446 4.59399 3.87137L4.72866 3.86671Z" fill="black"/>
</svg>
