<svg width="12" height="12" viewBox="0 0 12 12" fill="none" xmlns="http://www.w3.org/2000/svg">
<path d="M11.6579 9.42666L8.94794 6.96266C8.81992 6.84607 8.65155 6.78387 8.47847 6.78922C8.3054 6.79457 8.14119 6.86706 8.02061 6.99133L6.42528 8.632C6.04128 8.55866 5.26928 8.318 4.47461 7.52533C3.67994 6.73 3.43928 5.956 3.36794 5.57466L5.00728 3.97866C5.13155 3.85808 5.20403 3.69388 5.20939 3.5208C5.21474 3.34772 5.15253 3.17936 5.03594 3.05133L2.57261 0.341997C2.45597 0.213568 2.29386 0.135666 2.12071 0.124836C1.94756 0.114007 1.77701 0.171102 1.64528 0.283997L0.198611 1.52466C0.0833513 1.64034 0.0145569 1.7943 0.00527717 1.95733C-0.00472283 2.124 -0.195389 6.072 2.86594 9.13466C5.53661 11.8047 8.88194 12 9.80328 12C9.93794 12 10.0206 11.996 10.0426 11.9947C10.2055 11.985 10.3592 11.916 10.4746 11.8007L11.7146 10.3533C11.828 10.222 11.8855 10.0516 11.8749 9.87846C11.8643 9.70533 11.7864 9.54319 11.6579 9.42666Z" fill="black"/>
</svg>
