<svg width="24" height="24" viewBox="0 0 24 24" fill="none" xmlns="http://www.w3.org/2000/svg">
<path d="M16.648 9.75585V6.22408C16.648 3.80661 16.648 1 12 1C7.02443 1 7.35306 3.80661 7.35306 6.22408V9.75585M21.4269 7.40958L22.9922 21.5367C23.0789 22.3195 22.4345 23 21.6054 23H2.39574C2.20018 23.0002 2.00677 22.9613 1.82806 22.8859C1.64936 22.8104 1.48935 22.7001 1.35845 22.5621C1.22755 22.4241 1.12867 22.2615 1.06824 22.0848C1.00781 21.9082 0.987179 21.7214 1.00769 21.5367L2.5742 7.40958C2.61034 7.08414 2.77203 6.78293 3.02811 6.56402C3.28419 6.34512 3.61651 6.22402 3.96101 6.22408H20.0401C20.7539 6.22408 21.3525 6.73619 21.4269 7.40958ZM7.81781 9.75585C7.81781 9.87294 7.76884 9.98523 7.68169 10.068C7.59453 10.1508 7.47632 10.1973 7.35306 10.1973C7.2298 10.1973 7.11159 10.1508 7.02443 10.068C6.93728 9.98523 6.88831 9.87294 6.88831 9.75585C6.88831 9.63877 6.93728 9.52648 7.02443 9.44368C7.11159 9.36089 7.2298 9.31438 7.35306 9.31438C7.47632 9.31438 7.59453 9.36089 7.68169 9.44368C7.76884 9.52648 7.81781 9.63877 7.81781 9.75585ZM17.1128 9.75585C17.1128 9.87294 17.0638 9.98523 16.9767 10.068C16.8895 10.1508 16.7713 10.1973 16.648 10.1973C16.5248 10.1973 16.4066 10.1508 16.3194 10.068C16.2322 9.98523 16.1833 9.87294 16.1833 9.75585C16.1833 9.63877 16.2322 9.52648 16.3194 9.44368C16.4066 9.36089 16.5248 9.31438 16.648 9.31438C16.7713 9.31438 16.8895 9.36089 16.9767 9.44368C17.0638 9.52648 17.1128 9.63877 17.1128 9.75585Z" stroke="#35383A" stroke-width="1.5" stroke-linecap="round" stroke-linejoin="round"/>
</svg>
