<svg width="20" height="20" viewBox="0 0 20 20" fill="none" xmlns="http://www.w3.org/2000/svg">
<path fill-rule="evenodd" clip-rule="evenodd" d="M5.65116 0.915978C6.71278 0.476239 7.85062 0.249908 8.99972 0.249908C10.1488 0.249908 11.2867 0.476239 12.3483 0.915978C13.4099 1.35572 14.3745 2.00025 15.187 2.81278C15.9996 3.62532 16.6441 4.58993 17.0839 5.65156C17.5236 6.71318 17.7499 7.85102 17.7499 9.00011C17.7499 10.1492 17.5236 11.287 17.0839 12.3487C16.7401 13.1786 16.2711 13.9493 15.6946 14.6343L19.53 18.4698C19.8229 18.7627 19.8229 19.2375 19.53 19.5304C19.2372 19.8233 18.7623 19.8233 18.4694 19.5304L14.634 15.695C13.0629 17.0173 11.0691 17.7503 8.99972 17.7503C6.67902 17.7503 4.45337 16.8284 2.81239 15.1874C1.17141 13.5465 0.249512 11.3208 0.249512 9.00011C0.249512 6.67942 1.17141 4.45377 2.81239 2.81278C3.62492 2.00025 4.58953 1.35572 5.65116 0.915978ZM8.99972 1.74991C8.04761 1.74991 7.10482 1.93744 6.22518 2.3018C5.34555 2.66615 4.54629 3.2002 3.87305 3.87344C2.51337 5.23312 1.74951 7.07724 1.74951 9.00011C1.74951 10.923 2.51337 12.7671 3.87305 14.1268C5.23272 15.4865 7.07684 16.2503 8.99972 16.2503C10.9226 16.2503 12.7667 15.4865 14.1264 14.1268C14.7996 13.4535 15.3337 12.6543 15.698 11.7746C16.0624 10.895 16.2499 9.95222 16.2499 9.00011C16.2499 8.048 16.0624 7.10522 15.698 6.22558C15.3337 5.34595 14.7996 4.54669 14.1264 3.87344C13.4531 3.2002 12.6539 2.66615 11.7743 2.3018C10.8946 1.93744 9.95183 1.74991 8.99972 1.74991Z" fill="#35383A"/>
</svg>
