<svg width="20" height="22" viewBox="0 0 20 22" fill="none" xmlns="http://www.w3.org/2000/svg">
<path d="M4.57796 14.482C3.16296 15.324 -0.547038 17.044 1.71296 19.197C2.81596 20.248 4.04496 21 5.58996 21H14.408C15.954 21 17.183 20.248 18.286 19.197C20.546 17.044 16.836 15.324 15.421 14.482C13.7788 13.5119 11.9063 13.0001 9.99896 13.0001C8.0916 13.0001 6.22017 13.5119 4.57796 14.482ZM14.5 5.5C14.5 6.69347 14.0259 7.83807 13.1819 8.68198C12.338 9.52589 11.1934 10 9.99996 10C8.80649 10 7.66189 9.52589 6.81798 8.68198C5.97407 7.83807 5.49996 6.69347 5.49996 5.5C5.49996 4.30653 5.97407 3.16193 6.81798 2.31802C7.66189 1.47411 8.80649 1 9.99996 1C11.1934 1 12.338 1.47411 13.1819 2.31802C14.0259 3.16193 14.5 4.30653 14.5 5.5Z" stroke="#35383A" stroke-width="1.5" stroke-linecap="round" stroke-linejoin="round"/>
</svg>
