<svg width="16" height="16" viewBox="0 0 16 16" fill="none" xmlns="http://www.w3.org/2000/svg">
<path d="M8.5 4C8.00555 4 7.5222 4.14662 7.11107 4.42133C6.69995 4.69603 6.37952 5.08648 6.1903 5.54329C6.00108 6.00011 5.95157 6.50277 6.04804 6.98773C6.1445 7.47268 6.3826 7.91814 6.73223 8.26777C7.08186 8.6174 7.52732 8.8555 8.01227 8.95196C8.49723 9.04843 8.99989 8.99892 9.45671 8.8097C9.91352 8.62048 10.304 8.30005 10.5787 7.88893C10.8534 7.4778 11 6.99445 11 6.5C11 5.83696 10.7366 5.20107 10.2678 4.73223C9.79893 4.26339 9.16304 4 8.5 4ZM8.5 8C8.20333 8 7.91332 7.91203 7.66664 7.7472C7.41997 7.58238 7.22771 7.34811 7.11418 7.07403C7.00065 6.79994 6.97094 6.49834 7.02882 6.20736C7.0867 5.91639 7.22956 5.64912 7.43934 5.43934C7.64912 5.22956 7.91639 5.0867 8.20736 5.02882C8.49834 4.97094 8.79994 5.00065 9.07403 5.11418C9.34811 5.22771 9.58238 5.41997 9.7472 5.66664C9.91203 5.91332 10 6.20333 10 6.5C10 6.89782 9.84196 7.27936 9.56066 7.56066C9.27936 7.84196 8.89782 8 8.5 8ZM8.5 1C7.04182 1.00165 5.64383 1.58165 4.61274 2.61274C3.58165 3.64383 3.00165 5.04182 3 6.5C3 8.4625 3.90688 10.5425 5.625 12.5156C6.39702 13.4072 7.26591 14.2101 8.21562 14.9094C8.29969 14.9683 8.39985 14.9999 8.5025 14.9999C8.60515 14.9999 8.70531 14.9683 8.78938 14.9094C9.73734 14.2098 10.6045 13.4069 11.375 12.5156C13.0906 10.5425 14 8.4625 14 6.5C13.9983 5.04182 13.4184 3.64383 12.3873 2.61274C11.3562 1.58165 9.95818 1.00165 8.5 1ZM8.5 13.875C7.46687 13.0625 4 10.0781 4 6.5C4 5.30653 4.47411 4.16193 5.31802 3.31802C6.16193 2.47411 7.30653 2 8.5 2C9.69347 2 10.8381 2.47411 11.682 3.31802C12.5259 4.16193 13 5.30653 13 6.5C13 10.0769 9.53313 13.0625 8.5 13.875Z" fill="#35383A"/>
</svg>
