<svg width="14" height="14" viewBox="0 0 14 14" fill="none" xmlns="http://www.w3.org/2000/svg">
<path d="M6.99967 0.333496C3.31967 0.333496 0.333008 3.32016 0.333008 7.00016C0.333008 10.6802 3.31967 13.6668 6.99967 13.6668C10.6797 13.6668 13.6663 10.6802 13.6663 7.00016C13.6663 3.32016 10.6797 0.333496 6.99967 0.333496ZM10.093 4.86683C9.99301 5.92016 9.55967 8.48016 9.33967 9.66016C9.24634 10.1602 9.05967 10.3268 8.88634 10.3468C8.49967 10.3802 8.20634 10.0935 7.83301 9.84683C7.24634 9.46016 6.91301 9.22016 6.34634 8.84683C5.68634 8.4135 6.11301 8.1735 6.49301 7.78683C6.59301 7.68683 8.29967 6.1335 8.33301 5.9935C8.33764 5.97229 8.33702 5.95028 8.33121 5.92936C8.3254 5.90845 8.31458 5.88927 8.29967 5.8735C8.25967 5.84016 8.20634 5.8535 8.15967 5.86016C8.09967 5.8735 7.16634 6.4935 5.34634 7.72016C5.07967 7.90016 4.83967 7.9935 4.62634 7.98683C4.38634 7.98016 3.93301 7.8535 3.59301 7.74016C3.17301 7.60683 2.84634 7.5335 2.87301 7.30016C2.88634 7.18016 3.05301 7.06016 3.36634 6.9335C5.31301 6.08683 6.60634 5.52683 7.25301 5.26016C9.10634 4.48683 9.48634 4.3535 9.73967 4.3535C9.79301 4.3535 9.91967 4.36683 9.99967 4.4335C10.0663 4.48683 10.0863 4.56016 10.093 4.6135C10.0863 4.6535 10.0997 4.7735 10.093 4.86683Z" fill="black"/>
</svg>
