<svg width="14" height="14" viewBox="0 0 14 14" fill="none" xmlns="http://www.w3.org/2000/svg">
<path fill-rule="evenodd" clip-rule="evenodd" d="M13.5007 1.12652C13.7936 1.41941 13.7936 1.89428 13.5007 2.18718L8.37414 7.3137L13.5007 12.4402C13.7936 12.7331 13.7936 13.208 13.5007 13.5009C13.2078 13.7938 12.7329 13.7938 12.44 13.5009L7.31348 8.37436L2.18695 13.5009C1.89406 13.7938 1.41919 13.7938 1.12629 13.5009C0.833399 13.208 0.833399 12.7331 1.12629 12.4402L6.25282 7.3137L1.12629 2.18718C0.833399 1.89428 0.833399 1.41941 1.12629 1.12652C1.41919 0.833622 1.89406 0.833622 2.18695 1.12652L7.31348 6.25304L12.44 1.12652C12.7329 0.833622 13.2078 0.833622 13.5007 1.12652Z" fill="#35383A"/>
</svg>
