<svg width="17" height="14" viewBox="0 0 17 14" fill="none" xmlns="http://www.w3.org/2000/svg">
<path fill-rule="evenodd" clip-rule="evenodd" d="M4.61977 1.5999C4.22024 1.5999 3.82511 1.67571 3.45714 1.82248C3.0892 1.96923 2.75633 2.18377 2.47697 2.45279C2.19754 2.72176 1.97706 3.03995 1.82713 3.3884C1.67722 3.7368 1.60039 4.10939 1.60039 4.48508C1.60039 4.86077 1.67722 5.23336 1.82713 5.58176C1.97705 5.93018 2.19742 6.24826 2.47681 6.51722C2.47683 6.51724 2.47678 6.5172 2.47681 6.51722L3.63184 7.62866C3.66372 7.65934 3.69184 7.69318 3.7159 7.72946L8.3338 12.1768L12.9517 7.72946C12.9757 7.69318 13.0039 7.65934 13.0357 7.62866L14.1907 6.51733C14.1907 6.51729 14.1906 6.51737 14.1907 6.51733C14.7545 5.97444 15.067 5.24294 15.0671 4.4853C15.0671 3.72761 14.7548 2.99613 14.191 2.45314C13.6264 1.90941 12.856 1.6001 12.0481 1.60004C11.2402 1.59998 10.4697 1.90916 9.905 2.4528C9.90499 2.45281 9.90502 2.45278 9.905 2.4528L8.74997 3.565C8.51762 3.78873 8.14997 3.78873 7.91762 3.565L6.76259 2.4528C6.48322 2.18378 6.15034 1.96923 5.7824 1.82248C5.41444 1.67571 5.01931 1.5999 4.61977 1.5999ZM13.962 8.40269C13.938 8.43882 13.91 8.47253 13.8783 8.5031L8.76031 13.4321C8.64147 13.5465 8.48723 13.6024 8.3338 13.5998C8.18036 13.6024 8.02612 13.5465 7.90728 13.4321L2.7893 8.5031C2.75756 8.47253 2.72955 8.43882 2.70557 8.40269L1.64475 7.38191C1.25182 7.00368 0.938794 6.55331 0.724834 6.05604C0.51085 5.55871 0.400391 5.02482 0.400391 4.48508C0.400391 3.94533 0.51085 3.41145 0.724834 2.91412C0.938779 2.41689 1.25171 1.96661 1.6446 1.5884M13.962 8.40269L15.0228 7.38191C15.8165 6.61777 16.267 5.57629 16.2671 4.4854C16.2671 3.39451 15.817 2.35306 15.0234 1.58881C14.2306 0.825294 13.16 0.400123 12.0481 0.40004C10.9363 0.399957 9.8656 0.824968 9.07269 1.58836L8.3338 2.29985L7.59494 1.5884C7.59495 1.5884 7.59494 1.5884 7.59494 1.5884C7.20222 1.21022 6.73719 0.911371 6.22698 0.707868C5.7168 0.504376 5.17074 0.399902 4.61977 0.399902C4.06881 0.399902 3.52274 0.504376 3.01256 0.707868C2.50239 0.911358 2.03731 1.21026 1.6446 1.5884" fill="#35383A"/>
</svg>
