<svg width="15" height="9" viewBox="0 0 15 9" fill="none" xmlns="http://www.w3.org/2000/svg">
<path fill-rule="evenodd" clip-rule="evenodd" d="M15 2.5H0V1.5H15V2.5Z" fill="#35383A"/>
<path fill-rule="evenodd" clip-rule="evenodd" d="M15 7.5H0V6.5H15V7.5Z" fill="#35383A"/>
<path d="M6 2C6 2.82843 5.32843 3.5 4.5 3.5C3.67157 3.5 3 2.82843 3 2C3 1.17157 3.67157 0.5 4.5 0.5C5.32843 0.5 6 1.17157 6 2Z" fill="#35383A"/>
<path d="M13 7C13 7.82843 12.3284 8.5 11.5 8.5C10.6716 8.5 10 7.82843 10 7C10 6.17157 10.6716 5.5 11.5 5.5C12.3284 5.5 13 6.17157 13 7Z" fill="#35383A"/>
</svg>
