<svg width="24" height="20" viewBox="0 0 24 20" fill="none" xmlns="http://www.w3.org/2000/svg">
<path d="M2.59059 2.53104C3.09466 2.04564 3.69308 1.6606 4.35169 1.3979C5.0103 1.13521 5.7162 1 6.42907 1C7.14195 1 7.84784 1.13521 8.50645 1.3979C9.16506 1.6606 9.76349 2.04564 10.2676 2.53104L12.0001 4.19934L13.7327 2.53104C14.7508 1.55076 16.1317 1.0001 17.5716 1.00021C19.0114 1.00031 20.3922 1.55118 21.4102 2.53161C22.4283 3.51204 23.0001 4.84174 23 6.22817C22.9999 7.6146 22.4278 8.94421 21.4096 9.92449L19.6771 11.5917L19.6925 11.6065L12.0156 19L12.0001 18.9851L11.9846 19L4.30768 11.6065L4.32314 11.5917L2.59059 9.92449C2.08632 9.43909 1.6863 8.86279 1.41339 8.22849C1.14047 7.5942 1 6.91434 1 6.22776C1 5.54119 1.14047 4.86133 1.41339 4.22704C1.6863 3.59274 2.08632 3.01644 2.59059 2.53104Z" stroke="#35383A" stroke-width="1.5" stroke-linejoin="round"/>
</svg>
