<svg xmlns="http://www.w3.org/2000/svg" xmlns:xlink="http://www.w3.org/1999/xlink"><symbol id="icon-arrow-3" viewBox="0 0 12 13"><path d="M8.18934 5.75006L4.46967 2.03039L5.53033 0.969727L11.0607 6.50006L5.53033 12.0304L4.46967 10.9697L8.18934 7.25006H0V5.75006H8.18934Z"/></symbol><use xlink:href="#icon-arrow-3" width="12" height="13" y="0"/><view id="icon-arrow-3-view" viewBox="0 0 12 13"/><symbol id="icon-arrow-sm" viewBox="0 0 16 16"><path d="M-3.22792e-07 7.38462L13.8418 7.38462L7.9096 0.923077L8.65537 -3.21044e-07L16 8L8.65537 16L7.9096 15.0769L13.8418 8.61538L-3.7659e-07 8.61538L-3.22792e-07 7.38462Z"/></symbol><use xlink:href="#icon-arrow-sm" width="16" height="16" y="13"/><view id="icon-arrow-sm-view" viewBox="0 13 16 16"/><symbol id="icon-arrow-up" viewBox="0 0 9 9"><path fill-rule="evenodd" clip-rule="evenodd" d="M5.87993 2.08995L0.619518 2.08995L0.619518 0.589954H8.44059L8.44059 8.41102L6.94059 8.41102L6.94059 3.15061L1.14985 8.94135L0.0891882 7.88069L5.87993 2.08995Z"/></symbol><use xlink:href="#icon-arrow-up" width="9" height="9" y="29"/><view id="icon-arrow-up-view" viewBox="0 29 9 9"/><symbol id="icon-arrow-xs" viewBox="0 0 8 13"><path d="M1 12.3137L6.65685 6.65687L0.999999 1.00001" stroke-width="1.5"/></symbol><use xlink:href="#icon-arrow-xs" width="8" height="13" y="38"/><view id="icon-arrow-xs-view" viewBox="0 38 8 13"/><symbol id="icon-arrow" viewBox="0 0 9 9"><path d="M0.964466 1.03553H8.03553M8.03553 1.03553V8.1066M8.03553 1.03553L0.964466 8.1066"/></symbol><use xlink:href="#icon-arrow" width="9" height="9" y="51"/><view id="icon-arrow-view" viewBox="0 51 9 9"/><symbol id="icon-basket" viewBox="0 0 24 24"><path d="M16.648 9.75585V6.22408C16.648 3.80661 16.648 1 12 1C7.02443 1 7.35306 3.80661 7.35306 6.22408V9.75585M21.4269 7.40958L22.9922 21.5367C23.0789 22.3195 22.4345 23 21.6054 23H2.39574C2.20018 23.0002 2.00677 22.9613 1.82806 22.8859C1.64936 22.8104 1.48935 22.7001 1.35845 22.5621C1.22755 22.4241 1.12867 22.2615 1.06824 22.0848C1.00781 21.9082 0.987179 21.7214 1.00769 21.5367L2.5742 7.40958C2.61034 7.08414 2.77203 6.78293 3.02811 6.56402C3.28419 6.34512 3.61651 6.22402 3.96101 6.22408H20.0401C20.7539 6.22408 21.3525 6.73619 21.4269 7.40958ZM7.81781 9.75585C7.81781 9.87294 7.76884 9.98523 7.68169 10.068C7.59453 10.1508 7.47632 10.1973 7.35306 10.1973C7.2298 10.1973 7.11159 10.1508 7.02443 10.068C6.93728 9.98523 6.88831 9.87294 6.88831 9.75585C6.88831 9.63877 6.93728 9.52648 7.02443 9.44368C7.11159 9.36089 7.2298 9.31438 7.35306 9.31438C7.47632 9.31438 7.59453 9.36089 7.68169 9.44368C7.76884 9.52648 7.81781 9.63877 7.81781 9.75585ZM17.1128 9.75585C17.1128 9.87294 17.0638 9.98523 16.9767 10.068C16.8895 10.1508 16.7713 10.1973 16.648 10.1973C16.5248 10.1973 16.4066 10.1508 16.3194 10.068C16.2322 9.98523 16.1833 9.87294 16.1833 9.75585C16.1833 9.63877 16.2322 9.52648 16.3194 9.44368C16.4066 9.36089 16.5248 9.31438 16.648 9.31438C16.7713 9.31438 16.8895 9.36089 16.9767 9.44368C17.0638 9.52648 17.1128 9.63877 17.1128 9.75585Z" stroke-width="1.5" stroke-linecap="round" stroke-linejoin="round"/></symbol><use xlink:href="#icon-basket" width="24" height="24" y="60"/><view id="icon-basket-view" viewBox="0 60 24 24"/><symbol id="icon-cart" viewBox="0 0 60 60"><path d="M34.648 27.7559V24.2241C34.648 21.8066 34.648 19 30 19C25.0244 19 25.3531 21.8066 25.3531 24.2241V27.7559M39.4269 25.4096L40.9922 39.5367C41.0789 40.3195 40.4345 41 39.6054 41H20.3957C20.2002 41.0002 20.0068 40.9613 19.8281 40.8859C19.6494 40.8104 19.4894 40.7001 19.3585 40.5621C19.2275 40.4241 19.1287 40.2615 19.0682 40.0848C19.0078 39.9082 18.9872 39.7214 19.0077 39.5367L20.5742 25.4096C20.6103 25.0841 20.772 24.7829 21.0281 24.564C21.2842 24.3451 21.6165 24.224 21.961 24.2241H38.0401C38.7539 24.2241 39.3525 24.7362 39.4269 25.4096ZM25.8178 27.7559C25.8178 27.8729 25.7688 27.9852 25.6817 28.068C25.5945 28.1508 25.4763 28.1973 25.3531 28.1973C25.2298 28.1973 25.1116 28.1508 25.0244 28.068C24.9373 27.9852 24.8883 27.8729 24.8883 27.7559C24.8883 27.6388 24.9373 27.5265 25.0244 27.4437C25.1116 27.3609 25.2298 27.3144 25.3531 27.3144C25.4763 27.3144 25.5945 27.3609 25.6817 27.4437C25.7688 27.5265 25.8178 27.6388 25.8178 27.7559ZM35.1128 27.7559C35.1128 27.8729 35.0638 27.9852 34.9767 28.068C34.8895 28.1508 34.7713 28.1973 34.648 28.1973C34.5248 28.1973 34.4066 28.1508 34.3194 28.068C34.2322 27.9852 34.1833 27.8729 34.1833 27.7559C34.1833 27.6388 34.2322 27.5265 34.3194 27.4437C34.4066 27.3609 34.5248 27.3144 34.648 27.3144C34.7713 27.3144 34.8895 27.3609 34.9767 27.4437C35.0638 27.5265 35.1128 27.6388 35.1128 27.7559Z" stroke-width="1.5" stroke-linecap="round" stroke-linejoin="round"/></symbol><use xlink:href="#icon-cart" width="60" height="60" y="84"/><view id="icon-cart-view" viewBox="0 84 60 60"/><symbol id="icon-fav" viewBox="0 0 17 14"><path fill-rule="evenodd" clip-rule="evenodd" d="M4.61977 1.5999C4.22024 1.5999 3.82511 1.67571 3.45714 1.82248C3.0892 1.96923 2.75633 2.18377 2.47697 2.45279C2.19754 2.72176 1.97706 3.03995 1.82713 3.3884C1.67722 3.7368 1.60039 4.10939 1.60039 4.48508C1.60039 4.86077 1.67722 5.23336 1.82713 5.58176C1.97705 5.93018 2.19742 6.24826 2.47681 6.51722C2.47683 6.51724 2.47678 6.5172 2.47681 6.51722L3.63184 7.62866C3.66372 7.65934 3.69184 7.69318 3.7159 7.72946L8.3338 12.1768L12.9517 7.72946C12.9757 7.69318 13.0039 7.65934 13.0357 7.62866L14.1907 6.51733C14.1907 6.51729 14.1906 6.51737 14.1907 6.51733C14.7545 5.97444 15.067 5.24294 15.0671 4.4853C15.0671 3.72761 14.7548 2.99613 14.191 2.45314C13.6264 1.90941 12.856 1.6001 12.0481 1.60004C11.2402 1.59998 10.4697 1.90916 9.905 2.4528C9.90499 2.45281 9.90502 2.45278 9.905 2.4528L8.74997 3.565C8.51762 3.78873 8.14997 3.78873 7.91762 3.565L6.76259 2.4528C6.48322 2.18378 6.15034 1.96923 5.7824 1.82248C5.41444 1.67571 5.01931 1.5999 4.61977 1.5999ZM13.962 8.40269C13.938 8.43882 13.91 8.47253 13.8783 8.5031L8.76031 13.4321C8.64147 13.5465 8.48723 13.6024 8.3338 13.5998C8.18036 13.6024 8.02612 13.5465 7.90728 13.4321L2.7893 8.5031C2.75756 8.47253 2.72955 8.43882 2.70557 8.40269L1.64475 7.38191C1.25182 7.00368 0.938794 6.55331 0.724834 6.05604C0.51085 5.55871 0.400391 5.02482 0.400391 4.48508C0.400391 3.94533 0.51085 3.41145 0.724834 2.91412C0.938779 2.41689 1.25171 1.96661 1.6446 1.5884M13.962 8.40269L15.0228 7.38191C15.8165 6.61777 16.267 5.57629 16.2671 4.4854C16.2671 3.39451 15.817 2.35306 15.0234 1.58881C14.2306 0.825294 13.16 0.400123 12.0481 0.40004C10.9363 0.399957 9.8656 0.824968 9.07269 1.58836L8.3338 2.29985L7.59494 1.5884C7.59495 1.5884 7.59494 1.5884 7.59494 1.5884C7.20222 1.21022 6.73719 0.911371 6.22698 0.707868C5.7168 0.504376 5.17074 0.399902 4.61977 0.399902C4.06881 0.399902 3.52274 0.504376 3.01256 0.707868C2.50239 0.911358 2.03731 1.21026 1.6446 1.5884"/></symbol><use xlink:href="#icon-fav" width="17" height="14" y="144"/><view id="icon-fav-view" viewBox="0 144 17 14"/><symbol id="icon-search" viewBox="0 0 20 20"><path fill-rule="evenodd" clip-rule="evenodd" d="M5.65116 0.915978C6.71278 0.476239 7.85062 0.249908 8.99972 0.249908C10.1488 0.249908 11.2867 0.476239 12.3483 0.915978C13.4099 1.35572 14.3745 2.00025 15.187 2.81278C15.9996 3.62532 16.6441 4.58993 17.0839 5.65156C17.5236 6.71318 17.7499 7.85102 17.7499 9.00011C17.7499 10.1492 17.5236 11.287 17.0839 12.3487C16.7401 13.1786 16.2711 13.9493 15.6946 14.6343L19.53 18.4698C19.8229 18.7627 19.8229 19.2375 19.53 19.5304C19.2372 19.8233 18.7623 19.8233 18.4694 19.5304L14.634 15.695C13.0629 17.0173 11.0691 17.7503 8.99972 17.7503C6.67902 17.7503 4.45337 16.8284 2.81239 15.1874C1.17141 13.5465 0.249512 11.3208 0.249512 9.00011C0.249512 6.67942 1.17141 4.45377 2.81239 2.81278C3.62492 2.00025 4.58953 1.35572 5.65116 0.915978ZM8.99972 1.74991C8.04761 1.74991 7.10482 1.93744 6.22518 2.3018C5.34555 2.66615 4.54629 3.2002 3.87305 3.87344C2.51337 5.23312 1.74951 7.07724 1.74951 9.00011C1.74951 10.923 2.51337 12.7671 3.87305 14.1268C5.23272 15.4865 7.07684 16.2503 8.99972 16.2503C10.9226 16.2503 12.7667 15.4865 14.1264 14.1268C14.7996 13.4535 15.3337 12.6543 15.698 11.7746C16.0624 10.895 16.2499 9.95222 16.2499 9.00011C16.2499 8.048 16.0624 7.10522 15.698 6.22558C15.3337 5.34595 14.7996 4.54669 14.1264 3.87344C13.4531 3.2002 12.6539 2.66615 11.7743 2.3018C10.8946 1.93744 9.95183 1.74991 8.99972 1.74991Z"/></symbol><use xlink:href="#icon-search" width="20" height="20" y="158"/><view id="icon-search-view" viewBox="0 158 20 20"/><symbol id="icon-user" viewBox="0 0 20 22"><path d="M4.57796 14.482C3.16296 15.324 -0.547038 17.044 1.71296 19.197C2.81596 20.248 4.04496 21 5.58996 21H14.408C15.954 21 17.183 20.248 18.286 19.197C20.546 17.044 16.836 15.324 15.421 14.482C13.7788 13.5119 11.9063 13.0001 9.99896 13.0001C8.0916 13.0001 6.22017 13.5119 4.57796 14.482ZM14.5 5.5C14.5 6.69347 14.0259 7.83807 13.1819 8.68198C12.338 9.52589 11.1934 10 9.99996 10C8.80649 10 7.66189 9.52589 6.81798 8.68198C5.97407 7.83807 5.49996 6.69347 5.49996 5.5C5.49996 4.30653 5.97407 3.16193 6.81798 2.31802C7.66189 1.47411 8.80649 1 9.99996 1C11.1934 1 12.338 1.47411 13.1819 2.31802C14.0259 3.16193 14.5 4.30653 14.5 5.5Z" stroke-width="1.5" stroke-linecap="round" stroke-linejoin="round"/></symbol><use xlink:href="#icon-user" width="20" height="22" y="178"/><view id="icon-user-view" viewBox="0 178 20 22"/></svg>