<svg xmlns="http://www.w3.org/2000/svg" xmlns:xlink="http://www.w3.org/1999/xlink"><symbol id="_icon-arrow" viewBox="0 0 9 9"><path d="M0.964466 1.03553H8.03553M8.03553 1.03553V8.1066M8.03553 1.03553L0.964466 8.1066"/></symbol><use xlink:href="#_icon-arrow" width="9" height="9" y="0"/><view id="_icon-arrow-view" viewBox="0 0 9 9"/><symbol id="icon-arrow-sm" viewBox="0 0 16 16"><path d="M-3.22792e-07 7.38462L13.8418 7.38462L7.9096 0.923077L8.65537 -3.21044e-07L16 8L8.65537 16L7.9096 15.0769L13.8418 8.61538L-3.7659e-07 8.61538L-3.22792e-07 7.38462Z"/></symbol><use xlink:href="#icon-arrow-sm" width="16" height="16" y="9"/><view id="icon-arrow-sm-view" viewBox="0 9 16 16"/><symbol id="icon-arrow-up-2" viewBox="0 0 12 12"><path fill-rule="evenodd" clip-rule="evenodd" d="M6.44635 0.666016L11.9767 6.19635L10.916 7.25701L7.19635 3.53734L7.19635 11.7267H5.69635L5.69635 3.53734L1.97668 7.25701L0.916016 6.19635L6.44635 0.666016Z"/></symbol><use xlink:href="#icon-arrow-up-2" width="12" height="12" y="25"/><view id="icon-arrow-up-2-view" viewBox="0 25 12 12"/><symbol id="icon-arrow-up" viewBox="0 0 9 9"><path fill-rule="evenodd" clip-rule="evenodd" d="M5.87993 2.08995L0.619518 2.08995L0.619518 0.589954H8.44059L8.44059 8.41102L6.94059 8.41102L6.94059 3.15061L1.14985 8.94135L0.0891882 7.88069L5.87993 2.08995Z"/></symbol><use xlink:href="#icon-arrow-up" width="9" height="9" y="37"/><view id="icon-arrow-up-view" viewBox="0 37 9 9"/><symbol id="icon-arrow-xs" viewBox="0 0 8 13"><path fill-rule="evenodd" clip-rule="evenodd" d="M1.53027 12.844L0.469613 11.7833L5.59614 6.65681L0.469612 1.53029L1.53027 0.469626L7.71746 6.65681L1.53027 12.844Z"/></symbol><use xlink:href="#icon-arrow-xs" width="8" height="13" y="46"/><view id="icon-arrow-xs-view" viewBox="0 46 8 13"/><symbol id="icon-arrow" viewBox="0 0 11 11"><path fill-rule="evenodd" clip-rule="evenodd" d="M8.35682 0.285534L8.35682 8.1066H6.85682V2.84619L1.06609 8.63693L0.00542508 7.57627L5.79616 1.78553L0.535755 1.78553L0.535755 0.285534L8.35682 0.285534Z"/></symbol><use xlink:href="#icon-arrow" width="11" height="11" y="59"/><view id="icon-arrow-view" viewBox="0 59 11 11"/><symbol id="icon-basket" viewBox="0 0 24 24"><path d="M16.648 9.75585V6.22408C16.648 3.80661 16.648 1 12 1C7.02443 1 7.35306 3.80661 7.35306 6.22408V9.75585M21.4269 7.40958L22.9922 21.5367C23.0789 22.3195 22.4345 23 21.6054 23H2.39574C2.20018 23.0002 2.00677 22.9613 1.82806 22.8859C1.64936 22.8104 1.48935 22.7001 1.35845 22.5621C1.22755 22.4241 1.12867 22.2615 1.06824 22.0848C1.00781 21.9082 0.987179 21.7214 1.00769 21.5367L2.5742 7.40958C2.61034 7.08414 2.77203 6.78293 3.02811 6.56402C3.28419 6.34512 3.61651 6.22402 3.96101 6.22408H20.0401C20.7539 6.22408 21.3525 6.73619 21.4269 7.40958ZM7.81781 9.75585C7.81781 9.87294 7.76884 9.98523 7.68169 10.068C7.59453 10.1508 7.47632 10.1973 7.35306 10.1973C7.2298 10.1973 7.11159 10.1508 7.02443 10.068C6.93728 9.98523 6.88831 9.87294 6.88831 9.75585C6.88831 9.63877 6.93728 9.52648 7.02443 9.44368C7.11159 9.36089 7.2298 9.31438 7.35306 9.31438C7.47632 9.31438 7.59453 9.36089 7.68169 9.44368C7.76884 9.52648 7.81781 9.63877 7.81781 9.75585ZM17.1128 9.75585C17.1128 9.87294 17.0638 9.98523 16.9767 10.068C16.8895 10.1508 16.7713 10.1973 16.648 10.1973C16.5248 10.1973 16.4066 10.1508 16.3194 10.068C16.2322 9.98523 16.1833 9.87294 16.1833 9.75585C16.1833 9.63877 16.2322 9.52648 16.3194 9.44368C16.4066 9.36089 16.5248 9.31438 16.648 9.31438C16.7713 9.31438 16.8895 9.36089 16.9767 9.44368C17.0638 9.52648 17.1128 9.63877 17.1128 9.75585Z" stroke-width="1.5" stroke-linecap="round" stroke-linejoin="round"/></symbol><use xlink:href="#icon-basket" width="24" height="24" y="70"/><view id="icon-basket-view" viewBox="0 70 24 24"/><symbol id="icon-cart" viewBox="0 0 24 24"><path d="M16.648 9.75585V6.22408C16.648 3.80661 16.648 1 12 1C7.02443 1 7.35306 3.80661 7.35306 6.22408V9.75585M21.4269 7.40958L22.9922 21.5367C23.0789 22.3195 22.4345 23 21.6054 23H2.39574C2.20018 23.0002 2.00677 22.9613 1.82806 22.8859C1.64936 22.8104 1.48935 22.7001 1.35845 22.5621C1.22755 22.4241 1.12867 22.2615 1.06824 22.0848C1.00781 21.9082 0.987179 21.7214 1.00769 21.5367L2.5742 7.40958C2.61034 7.08414 2.77203 6.78293 3.02811 6.56402C3.28419 6.34512 3.61651 6.22402 3.96101 6.22408H20.0401C20.7539 6.22408 21.3525 6.73619 21.4269 7.40958ZM7.81781 9.75585C7.81781 9.87294 7.76884 9.98523 7.68169 10.068C7.59453 10.1508 7.47632 10.1973 7.35306 10.1973C7.2298 10.1973 7.11159 10.1508 7.02443 10.068C6.93728 9.98523 6.88831 9.87294 6.88831 9.75585C6.88831 9.63877 6.93728 9.52648 7.02443 9.44368C7.11159 9.36089 7.2298 9.31438 7.35306 9.31438C7.47632 9.31438 7.59453 9.36089 7.68169 9.44368C7.76884 9.52648 7.81781 9.63877 7.81781 9.75585ZM17.1128 9.75585C17.1128 9.87294 17.0638 9.98523 16.9767 10.068C16.8895 10.1508 16.7713 10.1973 16.648 10.1973C16.5248 10.1973 16.4066 10.1508 16.3194 10.068C16.2322 9.98523 16.1833 9.87294 16.1833 9.75585C16.1833 9.63877 16.2322 9.52648 16.3194 9.44368C16.4066 9.36089 16.5248 9.31438 16.648 9.31438C16.7713 9.31438 16.8895 9.36089 16.9767 9.44368C17.0638 9.52648 17.1128 9.63877 17.1128 9.75585Z" stroke-width="1.5" stroke-linecap="round" stroke-linejoin="round"/></symbol><use xlink:href="#icon-cart" width="24" height="24" y="94"/><view id="icon-cart-view" viewBox="0 94 24 24"/><symbol id="icon-close" viewBox="0 0 14 14"><path fill-rule="evenodd" clip-rule="evenodd" d="M13.5007 1.12652C13.7936 1.41941 13.7936 1.89428 13.5007 2.18718L8.37414 7.3137L13.5007 12.4402C13.7936 12.7331 13.7936 13.208 13.5007 13.5009C13.2078 13.7938 12.7329 13.7938 12.44 13.5009L7.31348 8.37436L2.18695 13.5009C1.89406 13.7938 1.41919 13.7938 1.12629 13.5009C0.833399 13.208 0.833399 12.7331 1.12629 12.4402L6.25282 7.3137L1.12629 2.18718C0.833399 1.89428 0.833399 1.41941 1.12629 1.12652C1.41919 0.833622 1.89406 0.833622 2.18695 1.12652L7.31348 6.25304L12.44 1.12652C12.7329 0.833622 13.2078 0.833622 13.5007 1.12652Z"/></symbol><use xlink:href="#icon-close" width="14" height="14" y="118"/><view id="icon-close-view" viewBox="0 118 14 14"/><symbol id="icon-fav" viewBox="0 0 24 20"><path d="M2.59059 2.53104C3.09466 2.04564 3.69308 1.6606 4.35169 1.3979C5.0103 1.13521 5.7162 1 6.42907 1C7.14195 1 7.84784 1.13521 8.50645 1.3979C9.16506 1.6606 9.76349 2.04564 10.2676 2.53104L12.0001 4.19934L13.7327 2.53104C14.7508 1.55076 16.1317 1.0001 17.5716 1.00021C19.0114 1.00031 20.3922 1.55118 21.4102 2.53161C22.4283 3.51204 23.0001 4.84174 23 6.22817C22.9999 7.6146 22.4278 8.94421 21.4096 9.92449L19.6771 11.5917L19.6925 11.6065L12.0156 19L12.0001 18.9851L11.9846 19L4.30768 11.6065L4.32314 11.5917L2.59059 9.92449C2.08632 9.43909 1.6863 8.86279 1.41339 8.22849C1.14047 7.5942 1 6.91434 1 6.22776C1 5.54119 1.14047 4.86133 1.41339 4.22704C1.6863 3.59274 2.08632 3.01644 2.59059 2.53104Z" stroke-width="1.5" stroke-linejoin="round"/></symbol><use xlink:href="#icon-fav" width="24" height="20" y="132"/><view id="icon-fav-view" viewBox="0 132 24 20"/><symbol id="icon-search" viewBox="0 0 20 20"><path fill-rule="evenodd" clip-rule="evenodd" d="M5.65116 0.915978C6.71278 0.476239 7.85062 0.249908 8.99972 0.249908C10.1488 0.249908 11.2867 0.476239 12.3483 0.915978C13.4099 1.35572 14.3745 2.00025 15.187 2.81278C15.9996 3.62532 16.6441 4.58993 17.0839 5.65156C17.5236 6.71318 17.7499 7.85102 17.7499 9.00011C17.7499 10.1492 17.5236 11.287 17.0839 12.3487C16.7401 13.1786 16.2711 13.9493 15.6946 14.6343L19.53 18.4698C19.8229 18.7627 19.8229 19.2375 19.53 19.5304C19.2372 19.8233 18.7623 19.8233 18.4694 19.5304L14.634 15.695C13.0629 17.0173 11.0691 17.7503 8.99972 17.7503C6.67902 17.7503 4.45337 16.8284 2.81239 15.1874C1.17141 13.5465 0.249512 11.3208 0.249512 9.00011C0.249512 6.67942 1.17141 4.45377 2.81239 2.81278C3.62492 2.00025 4.58953 1.35572 5.65116 0.915978ZM8.99972 1.74991C8.04761 1.74991 7.10482 1.93744 6.22518 2.3018C5.34555 2.66615 4.54629 3.2002 3.87305 3.87344C2.51337 5.23312 1.74951 7.07724 1.74951 9.00011C1.74951 10.923 2.51337 12.7671 3.87305 14.1268C5.23272 15.4865 7.07684 16.2503 8.99972 16.2503C10.9226 16.2503 12.7667 15.4865 14.1264 14.1268C14.7996 13.4535 15.3337 12.6543 15.698 11.7746C16.0624 10.895 16.2499 9.95222 16.2499 9.00011C16.2499 8.048 16.0624 7.10522 15.698 6.22558C15.3337 5.34595 14.7996 4.54669 14.1264 3.87344C13.4531 3.2002 12.6539 2.66615 11.7743 2.3018C10.8946 1.93744 9.95183 1.74991 8.99972 1.74991Z"/></symbol><use xlink:href="#icon-search" width="20" height="20" y="152"/><view id="icon-search-view" viewBox="0 152 20 20"/><symbol id="icon-slider-arrow" viewBox="0 0 8 13"><path fill-rule="evenodd" clip-rule="evenodd" d="M1.53033 12.8438L0.469674 11.7831L5.5962 6.65657L0.469673 1.53004L1.53033 0.469382L7.71752 6.65657L1.53033 12.8438Z"/></symbol><use xlink:href="#icon-slider-arrow" width="8" height="13" y="172"/><view id="icon-slider-arrow-view" viewBox="0 172 8 13"/><symbol id="icon-user" viewBox="0 0 20 22"><path d="M4.57796 14.482C3.16296 15.324 -0.547038 17.044 1.71296 19.197C2.81596 20.248 4.04496 21 5.58996 21H14.408C15.954 21 17.183 20.248 18.286 19.197C20.546 17.044 16.836 15.324 15.421 14.482C13.7788 13.5119 11.9063 13.0001 9.99896 13.0001C8.0916 13.0001 6.22017 13.5119 4.57796 14.482ZM14.5 5.5C14.5 6.69347 14.0259 7.83807 13.1819 8.68198C12.338 9.52589 11.1934 10 9.99996 10C8.80649 10 7.66189 9.52589 6.81798 8.68198C5.97407 7.83807 5.49996 6.69347 5.49996 5.5C5.49996 4.30653 5.97407 3.16193 6.81798 2.31802C7.66189 1.47411 8.80649 1 9.99996 1C11.1934 1 12.338 1.47411 13.1819 2.31802C14.0259 3.16193 14.5 4.30653 14.5 5.5Z" stroke-width="1.5" stroke-linecap="round" stroke-linejoin="round"/></symbol><use xlink:href="#icon-user" width="20" height="22" y="185"/><view id="icon-user-view" viewBox="0 185 20 22"/></svg>