<svg xmlns="http://www.w3.org/2000/svg" xmlns:xlink="http://www.w3.org/1999/xlink"><symbol id="a" viewBox="0 0 12 13"><path d="M8.19 5.75 4.47 2.03 5.53.97l5.53 5.53-5.53 5.53-1.06-1.06 3.72-3.72H0v-1.5z"/></symbol><use xlink:href="#a" width="12" height="13"/><symbol id="b" viewBox="0 0 16 16"><path d="M0 7.385h13.842L7.91.923 8.655 0 16 8l-7.345 8-.745-.923 5.932-6.462H0z"/></symbol><use xlink:href="#b" width="16" height="16" y="13"/><symbol id="c" viewBox="0 0 9 9"><path fill-rule="evenodd" d="M5.88 2.09H.62V.59h7.82v7.821h-1.5v-5.26L1.15 8.94.09 7.881z" clip-rule="evenodd"/></symbol><use xlink:href="#c" width="9" height="9" y="29"/><symbol id="d" viewBox="0 0 8 13"><path stroke-width="1.5" d="m1 12.314 5.657-5.657L1 1"/></symbol><use xlink:href="#d" width="8" height="13" y="38"/><symbol id="e" viewBox="0 0 9 9"><path d="M.964 1.036h7.072m0 0v7.07m0-7.07L.964 8.106"/></symbol><use xlink:href="#e" width="9" height="9" y="51"/><symbol id="f" viewBox="0 0 24 24"><path stroke-linecap="round" stroke-linejoin="round" stroke-width="1.5" d="M16.648 9.756V6.224C16.648 3.807 16.648 1 12 1 7.024 1 7.353 3.807 7.353 6.224v3.532M21.427 7.41l1.565 14.127c.087.783-.558 1.463-1.387 1.463H2.395c-.195 0-.388-.039-.567-.114a1.4 1.4 0 0 1-.47-.324 1.3 1.3 0 0 1-.29-.477 1.3 1.3 0 0 1-.06-.548L2.574 7.41c.036-.326.198-.627.454-.846s.589-.34.933-.34h16.08c.713 0 1.311.512 1.386 1.186M7.817 9.756a.43.43 0 0 1-.135.312.48.48 0 0 1-.329.13.48.48 0 0 1-.329-.13.43.43 0 0 1-.136-.312.43.43 0 0 1 .136-.312.48.48 0 0 1 .33-.13.48.48 0 0 1 .328.13.43.43 0 0 1 .136.312m9.296 0a.43.43 0 0 1-.136.312.48.48 0 0 1-.329.13.48.48 0 0 1-.329-.13.43.43 0 0 1-.136-.312.43.43 0 0 1 .136-.312.48.48 0 0 1 .329-.13c.123 0 .242.047.329.13a.43.43 0 0 1 .136.312"/></symbol><use xlink:href="#f" width="24" height="24" y="60"/><symbol id="g" viewBox="0 0 60 60"><path stroke-linecap="round" stroke-linejoin="round" stroke-width="1.5" d="M34.648 27.756v-3.532c0-2.417 0-5.224-4.648-5.224-4.976 0-4.647 2.807-4.647 5.224v3.532m14.074-2.346 1.565 14.127c.087.782-.557 1.463-1.387 1.463h-19.21c-.195 0-.388-.039-.567-.114a1.4 1.4 0 0 1-.47-.324 1.3 1.3 0 0 1-.29-.477 1.3 1.3 0 0 1-.06-.548l1.566-14.127c.036-.326.198-.627.454-.846s.588-.34.933-.34h16.08c.713 0 1.312.512 1.386 1.186m-13.61 2.346a.43.43 0 0 1-.135.312.48.48 0 0 1-.329.13.48.48 0 0 1-.329-.13.43.43 0 0 1-.136-.312.43.43 0 0 1 .136-.312.48.48 0 0 1 .33-.13.48.48 0 0 1 .328.13.43.43 0 0 1 .136.312m9.296 0a.43.43 0 0 1-.136.312.48.48 0 0 1-.329.13.48.48 0 0 1-.329-.13.43.43 0 0 1-.136-.312.43.43 0 0 1 .136-.312.48.48 0 0 1 .329-.13.48.48 0 0 1 .329.13.43.43 0 0 1 .136.312"/></symbol><use xlink:href="#g" width="60" height="60" y="84"/><symbol id="h" viewBox="0 0 17 14"><path fill-rule="evenodd" d="M4.62 1.6c-.4 0-.795.076-1.163.222a3 3 0 0 0-.98.63c-.28.27-.5.588-.65.936a2.77 2.77 0 0 0 0 2.194c.15.348.37.666.65.935L3.632 7.63a.6.6 0 0 1 .084.1l4.618 4.448 4.618-4.448a.6.6 0 0 1 .084-.1l1.155-1.112a2.82 2.82 0 0 0 .876-2.032c0-.757-.312-1.489-.876-2.032a3.1 3.1 0 0 0-2.143-.853c-.808 0-1.578.31-2.143.853L8.75 3.565a.6.6 0 0 1-.832 0L6.763 2.453a3 3 0 0 0-.98-.63A3.1 3.1 0 0 0 4.62 1.6m9.342 6.803a.6.6 0 0 1-.084.1l-5.118 4.93a.6.6 0 0 1-.426.167.6.6 0 0 1-.427-.168L2.79 8.503a.6.6 0 0 1-.083-.1L1.645 7.382a4.1 4.1 0 0 1-.92-1.326 3.97 3.97 0 0 1 0-3.142 4.1 4.1 0 0 1 .92-1.326m12.317 6.815 1.06-1.021a4.02 4.02 0 0 0 1.245-2.897 4.02 4.02 0 0 0-1.244-2.896A4.3 4.3 0 0 0 12.048.4a4.3 4.3 0 0 0-2.975 1.188l-.74.712-.738-.712a4.2 4.2 0 0 0-1.368-.88 4.34 4.34 0 0 0-3.214 0c-.51.203-.976.502-1.368.88" clip-rule="evenodd"/></symbol><use xlink:href="#h" width="17" height="14" y="144"/><symbol id="i" viewBox="0 0 20 20"><path fill-rule="evenodd" d="M5.651.916a8.75 8.75 0 0 1 10.044 13.718l3.835 3.836a.75.75 0 1 1-1.06 1.06l-3.836-3.835A8.75 8.75 0 1 1 5.651.916M9 1.75a7.25 7.25 0 1 0 0 14.5 7.25 7.25 0 0 0 0-14.5" clip-rule="evenodd"/></symbol><use xlink:href="#i" width="20" height="20" y="158"/><symbol id="j" viewBox="0 0 20 22"><path stroke-linecap="round" stroke-linejoin="round" stroke-width="1.5" d="M4.578 14.482c-1.415.842-5.125 2.562-2.865 4.715C2.816 20.248 4.045 21 5.59 21h8.818c1.546 0 2.775-.752 3.878-1.803 2.26-2.153-1.45-3.873-2.865-4.715a10.66 10.66 0 0 0-10.843 0M14.5 5.5a4.5 4.5 0 1 1-9 0 4.5 4.5 0 0 1 9 0"/></symbol><use xlink:href="#j" width="20" height="22" y="178"/></svg>